<?xml version="1.0" standalone="no"?><!DOCTYPE svg PUBLIC "-//W3C//DTD SVG 1.1//EN" "http://www.w3.org/Graphics/SVG/1.1/DTD/svg11.dtd"><svg t="1748824985931" class="icon" viewBox="0 0 1024 1024" version="1.1" xmlns="http://www.w3.org/2000/svg" p-id="9484" xmlns:xlink="http://www.w3.org/1999/xlink" width="200" height="200"><path d="M469.973333 85.290667c-10.922667 0-22.272 3.669333-30.634666 11.989333-6.656 6.698667-2.773333 4.906667-26.624 24.021333-42.325333 33.92-61.866667 68.736-67.925334 134.656H214.272a42.666667 42.666667 0 0 0-42.624 42.666667v293.333333c0 113.578667 62.506667 210.986667 147.84 261.333334H256.896a42.666667 42.666667 0 0 0 0 85.333333h511.402667a42.666667 42.666667 0 0 0 0-85.333333h-63.914667c89.941333-53.162667 149.162667-152.277333 149.162667-256a170.581333 170.581333 0 0 0 170.453333-170.666667c0-94.250667-76.330667-170.666667-170.453333-170.666667h-209.109334c3.754667-33.109333 10.837333-50.005333 33.28-68.010666 27.733333-22.229333 25.941333-19.285333 35.968-29.312a43.946667 43.946667 0 0 0 0-61.354667 43.221333 43.221333 0 0 0-30.634666-11.989333c-10.88 0-22.272 3.669333-30.634667 11.989333-6.656 6.698667-2.773333 4.906667-26.624 24.021333-42.026667 33.664-60.458667 69.589333-66.56 134.656H431.36c3.84-33.536 10.624-49.834667 33.28-68.010666 27.733333-22.229333 25.941333-19.285333 35.968-29.312a43.946667 43.946667 0 0 0 0-61.354667 43.221333 43.221333 0 0 0-30.634667-11.989333z m-213.077333 256h511.402667v250.666666a218.88 218.88 0 0 1-218.410667 218.666667H475.306667a218.88 218.88 0 0 1-218.410667-218.666667V341.290667z m596.650667 0c47.061333 0 85.205333 38.186667 85.205333 85.333333s-38.144 85.333333-85.205333 85.333333v-170.666666z" fill="#2A343D" p-id="9485"></path></svg>